<?xml version="1.0" encoding="UTF-8" standalone="no"?> <svg width="64" height="64" viewBox="0 0 64 64" fill="none" xmlns="http://www.w3.org/2000/svg">
<path d="M52.81 34.76C52.7811 34.5374 52.6924 34.3268 52.5533 34.1507C52.4141 33.9746 52.2298 33.8395 52.02 33.76L35.02 27.37L42.93 6.55996C43.021 6.30655 43.0279 6.0305 42.9494 5.7729C42.8709 5.51531 42.7113 5.28995 42.4944 5.13036C42.2775 4.97078 42.0149 4.8855 41.7456 4.88723C41.4763 4.88896 41.2148 4.9776 41 5.13996L11.65 28.06C11.4768 28.1992 11.3431 28.3815 11.2624 28.5885C11.1817 28.7956 11.1567 29.0202 11.19 29.24C11.2188 29.4625 11.3076 29.6731 11.4467 29.8492C11.5858 30.0253 11.7701 30.1604 11.98 30.24L28.98 36.63L21.07 57.44C20.9789 57.6934 20.9721 57.9694 21.0506 58.227C21.1291 58.4846 21.2886 58.71 21.5055 58.8696C21.7224 59.0291 21.9851 59.1144 22.2543 59.1127C22.5236 59.111 22.7851 59.0223 23 58.86L52.35 35.94C52.5256 35.8028 52.661 35.6208 52.742 35.4131C52.8229 35.2055 52.8464 34.9798 52.81 34.76ZM25 54.15L31.73 36.32C31.8439 36.0095 31.8313 35.6667 31.6947 35.3655C31.5581 35.0643 31.3086 34.8288 31 34.71L15 28.71L39 9.84996L32.29 27.68C32.1749 27.9879 32.1847 28.3286 32.3174 28.6294C32.45 28.9302 32.695 29.1673 33 29.29L49 35.29L25 54.15Z" fill="black"/>
</svg>
