<?xml version="1.0" encoding="utf-8"?>
<!-- Generator: Adobe Illustrator 16.0.0, SVG Export Plug-In . SVG Version: 6.00 Build 0)  -->
<!DOCTYPE svg PUBLIC "-//W3C//DTD SVG 1.0//EN" "http://www.w3.org/TR/2001/REC-SVG-20010904/DTD/svg10.dtd">
<svg version="1.0" id="Layer_1" xmlns="http://www.w3.org/2000/svg" xmlns:xlink="http://www.w3.org/1999/xlink" x="0px" y="0px"
	 width="100px" height="100px" viewBox="0 0 100 100" enable-background="new 0 0 100 100" xml:space="preserve">
<path d="M86.667,16.668H13.333c-1.833,0-3.333,1.5-3.333,3.333v46.665c0,1.836,1.5,3.333,3.333,3.333h20.519
	c-4.681,2.019-8.993,4.909-12.704,8.62l4.715,4.714c13.325-13.334,34.939-13.334,48.27,0l4.714-4.714
	c-3.711-3.711-8.024-6.602-12.705-8.62h20.524c1.832,0,3.333-1.497,3.333-3.333V20.001C90,18.168,88.499,16.668,86.667,16.668z
	 M83.333,63.333H16.667V23.334h66.667V63.333z"/>
</svg>
